<svg width="18" height="18" viewBox="0 0 18 18" fill="none" xmlns="http://www.w3.org/2000/svg">
<path fill-rule="evenodd" clip-rule="evenodd" d="M2.60001 0.199951H15.4C16.7255 0.199951 17.8 1.27447 17.8 2.59995V15.4C17.8 16.7254 16.7255 17.8 15.4 17.8H2.60001C1.27453 17.8 0.200012 16.7254 0.200012 15.4V2.59995C0.200012 1.27447 1.27453 0.199951 2.60001 0.199951ZM7.24001 9.87995L3.72001 14.28H14.28L11.64 10.76L9.85361 13.1448L7.24001 9.87995ZM13.4 5.91995C13.4 5.18955 12.8104 4.59995 12.08 4.59995C11.3496 4.59995 10.76 5.18955 10.76 5.91995C10.76 6.65035 11.3496 7.23995 12.08 7.23995C12.8104 7.23995 13.4 6.65035 13.4 5.91995Z" fill="#969696"/>
</svg>
