<svg width="540" height="350" viewBox="0 0 540 350" fill="none" xmlns="http://www.w3.org/2000/svg">
<rect width="540" height="350" rx="8" fill="#DBDBDB"/>
<path fill-rule="evenodd" clip-rule="evenodd" d="M263.6 166.2H276.4C277.725 166.2 278.8 167.274 278.8 168.6V181.4C278.8 182.725 277.725 183.8 276.4 183.8H263.6C262.275 183.8 261.2 182.725 261.2 181.4V168.6C261.2 167.274 262.275 166.2 263.6 166.2ZM268.24 175.88L264.72 180.28H275.28L272.64 176.76L270.854 179.145L268.24 175.88ZM274.4 171.92C274.4 171.19 273.81 170.6 273.08 170.6C272.35 170.6 271.76 171.19 271.76 171.92C271.76 172.65 272.35 173.24 273.08 173.24C273.81 173.24 274.4 172.65 274.4 171.92Z" fill="#969696"/>
</svg>
